<svg width="13" height="12" viewBox="0 0 13 12" fill="none" xmlns="http://www.w3.org/2000/svg">
<path fill-rule="evenodd" clip-rule="evenodd" d="M1.5739 4.96156C1.12047 4.96156 0.752885 5.32914 0.752885 5.78258C0.752886 6.23601 1.12047 6.6036 1.57391 6.6036L5.6789 6.6036L5.67891 10.7088C5.67891 11.1622 6.04649 11.5298 6.49993 11.5298C6.95336 11.5298 7.32095 11.1622 7.32095 10.7088L7.32094 6.6036L11.4261 6.6036C11.8796 6.6036 12.2472 6.23602 12.2472 5.78258C12.2472 5.32915 11.8796 4.96156 11.4261 4.96156L7.32094 4.96156L7.32094 0.856519C7.32094 0.403083 6.95336 0.0354992 6.49992 0.035499C6.04648 0.0354987 5.6789 0.403083 5.6789 0.85652L5.6789 4.96156L1.5739 4.96156Z" fill="white"/>
</svg>
